<?xml version="1.0" encoding="UTF-8" standalone="no"?>
<svg
   xmlns:osb="http://www.openswatchbook.org/uri/2009/osb"
   xmlns:dc="http://purl.org/dc/elements/1.1/"
   xmlns:cc="http://creativecommons.org/ns#"
   xmlns:rdf="http://www.w3.org/1999/02/22-rdf-syntax-ns#"
   xmlns:svg="http://www.w3.org/2000/svg"
   xmlns="http://www.w3.org/2000/svg"
   version="1.1"
   id="svg5016"
   viewBox="0 0 192 192"
   height="192"
   width="192">
  <defs
     id="defs5018">
    <linearGradient
       gradientTransform="matrix(4.5575511e13,-9.4661793e12,8.9941949e12,4.7967162e13,-1.3790088e19,-1.2703258e19)"
       osb:paint="solid"
       id="yellow">
      <stop
         id="stop4327"
         offset="0"
         style="stop-color:#d3bd4c;stop-opacity:1;" />
    </linearGradient>
  </defs>
  <metadata
     id="metadata5021">
    <rdf:RDF>
      <cc:Work
         rdf:about="">
        <dc:format>image/svg+xml</dc:format>
        <dc:type
           rdf:resource="http://purl.org/dc/dcmitype/StillImage" />
        <dc:title></dc:title>
      </cc:Work>
    </rdf:RDF>
  </metadata>
  <g
     transform="translate(0,-860.36216)"
     id="layer1">
    <path
       id="use5001"
       style="display:inline;opacity:1;fill:url(#yellow);fill-opacity:1;stroke:none;stroke-width:30;stroke-linecap:butt;stroke-linejoin:miter;stroke-miterlimit:4;stroke-dasharray:none;stroke-dashoffset:0;stroke-opacity:1"
       d="m 114.20174,880.34222 c 7.28354,20.10655 11.03861,41.32031 11.09957,62.70535 -7.7e-4,15.57465 -1.96179,31.02419 -5.79109,45.99552 -0.63702,2.49057 -1.30241,4.96618 -2.02299,7.42863 l -1.04287,3.85468 c -2.89436,10.0367 -4.93656,20.2996 -6.10484,30.6796 6.93658,-1.4251 13.62057,-3.8814 19.82953,-7.2866 0.83255,-2.1831 1.77249,-4.3238 2.81636,-6.4141 0.0213,-0.043 0.0414,-0.087 0.0627,-0.1285 1.03521,-2.0638 2.17058,-4.0757 3.40205,-6.0286 0.035,-0.056 0.0693,-0.1118 0.10459,-0.1674 1.22768,-1.9359 2.5485,-3.8113 3.95784,-5.6193 0.0514,-0.065 0.10371,-0.1314 0.15539,-0.1971 1.41162,-1.799 2.90945,-3.5288 4.48823,-5.18304 0.32751,-0.34313 0.65441,-0.68674 0.98908,-1.02345 27.69437,-27.69462 27.69437,-72.59615 0,-100.29071 -8.84839,-8.81468 -19.86782,-15.13617 -31.94359,-18.32498 z m -36.736633,0.0792 a 70.916429,70.916429 0 0 0 -31.61041,18.2458 70.916429,70.916429 0 0 0 0,100.29068 70.916429,70.916429 0 0 1 16.018113,24.77353 70.916429,70.916429 0 0 0 31.945083,8.6508 185.66237,185.66237 0 0 0 9.436657,-58.00062 185.66237,185.66237 0 0 0 -25.789443,-93.96019 z" />
  </g>
</svg>
